<svg xmlns="http://www.w3.org/2000/svg" viewBox="0 0 16 16" fill="#2e3436">
  <!-- curved trunk -->
  <path d="M7.1 14.5 C6.6 11.2 6.9 8.6 8 6.3 C8.3 6.45 8.6 6.6 8.9 6.7 C7.7 8.9 7.5 11.4 8.3 14.5 Z"/>
  <!-- coconuts -->
  <circle cx="7.4" cy="6.4" r="0.7"/><circle cx="8.9" cy="6.6" r="0.6"/>
  <!-- fronds: broad and drooping, radiating from the crown -->
  <path d="M8 5.9 C5.4 4.0 3.0 4.3 1.4 6.6 C2.2 5.6 4.6 5.4 6.8 6.6 C5.4 5.9 3.6 6.2 2.6 7.2 C4.4 6.2 6.6 6.4 8 6.4 Z"/>
  <path d="M8 5.9 C10.6 4.0 13.0 4.3 14.6 6.6 C13.8 5.6 11.4 5.4 9.2 6.6 C10.6 5.9 12.4 6.2 13.4 7.2 C11.6 6.2 9.4 6.4 8 6.4 Z"/>
  <path d="M8 5.9 C6.6 3.0 4.6 1.8 2.6 2.0 C4.0 2.4 5.8 3.6 7.0 5.6 C5.8 4.4 4.2 4.0 3.0 4.2 C5.0 4.4 6.8 5.4 8 6.2 Z"/>
  <path d="M8 5.9 C9.4 3.0 11.4 1.8 13.4 2.0 C12.0 2.4 10.2 3.6 9.0 5.6 C10.2 4.4 11.8 4.0 13.0 4.2 C11.0 4.4 9.2 5.4 8 6.2 Z"/>
  <path d="M8 5.9 C7.5 2.9 7.7 1.3 8 0.9 C8.3 1.3 8.5 2.9 8 5.9 Z"/>
</svg>
