<svg xmlns="http://www.w3.org/2000/svg" viewBox="0 0 16 16" fill="#2e3436">
  <!-- trunk -->
  <path d="M7.5 6 C7.3 9 6.9 11.6 6 14.4 L7.3 14.4 C7.9 11.6 8.2 9 8.5 6.2 Z"/>
  <!-- fronds -->
  <path d="M8 5.6 C5.6 4 3 3.9 1.2 5.3 C3.4 4.5 5.8 5 7.7 6.3 Z"/>
  <path d="M8 5.6 C10.4 4 13 3.9 14.8 5.3 C12.6 4.5 10.2 5 8.3 6.3 Z"/>
  <path d="M8 5.6 C6.6 3.3 5.4 1.8 5.9 0.8 C6.5 2.7 7.2 4.3 7.9 6.1 Z"/>
  <path d="M8 5.6 C9.4 3.3 10.6 1.8 10.1 0.8 C9.5 2.7 8.8 4.3 8.1 6.1 Z"/>
  <!-- crown -->
  <circle cx="8" cy="5.5" r="0.9"/>
</svg>
