<svg xmlns="http://www.w3.org/2000/svg" viewBox="0 0 16 16" fill="#2e3436">
  <!-- Back bubble with a bold "A"; a gap is cut where the front bubble overlaps. -->
  <path fill-rule="evenodd" d="
    M1.6 0.9 h7.0 a1.7 1.7 0 0 1 1.7 1.7 v3.4 a1.7 1.7 0 0 1 -1.7 1.7 h-2.3 l-2.4 2.2 v-2.2 h-0.3 a1.7 1.7 0 0 1 -1.7 -1.7 v-3.4 a1.7 1.7 0 0 1 1.7 -1.7 z
    M5.1 2.2 l-2.35 5.0 h1.6 l0.42 -1.0 h1.66 l0.42 1.0 h1.6 l-2.35 -5.0 z
    M5.1 3.95 l0.5 1.25 h-1.0 z"/>
  <!-- Front bubble with two bold text lines (a gap separates it from the back). -->
  <path fill-rule="evenodd" d="
    M8.0 7.0 h6.4 a1.7 1.7 0 0 1 1.7 1.7 v3.4 a1.7 1.7 0 0 1 -1.7 1.7 h-2.8 l-2.4 2.2 v-2.2 h-0.5 a1.7 1.7 0 0 1 -1.7 -1.7 v-3.4 a1.7 1.7 0 0 1 1.7 -1.7 z
    M9.1 8.7 h5.4 v1.15 h-5.4 z
    M9.1 10.7 h3.5 v1.15 h-3.5 z"/>
</svg>
